<svg width="537" height="391" viewBox="0 0 537 391" fill="none" xmlns="http://www.w3.org/2000/svg">
<g clip-path="url(#clip0)">
<path d="M294.013 142.955H342.7C348.254 142.955 352.756 138.448 352.756 132.89V93.9968C352.756 88.438 348.254 83.9317 342.7 83.9317H294.013C288.459 83.9317 283.957 88.438 283.957 93.9968V132.89C283.957 138.448 288.459 142.955 294.013 142.955Z" fill="white"/>
<path d="M339.25 139.529L328.772 157.615L321.194 139.529H339.25Z" fill="white"/>
<path d="M379.346 309.761V330.13L188.553 389.774L379.346 309.761Z" fill="#BEE6F3" stroke="white" stroke-miterlimit="10"/>
<path d="M461.638 275.308L185.258 391L318.631 226.886L461.638 275.308Z" fill="#27AAE1"/>
<path d="M175.413 3.41141H129.951C124.397 3.41141 119.895 7.91768 119.895 13.4764V34.5369C119.895 40.0957 124.397 44.6019 129.951 44.6019H175.413C180.967 44.6019 185.469 40.0957 185.469 34.5369V13.4764C185.469 7.91768 180.967 3.41141 175.413 3.41141Z" fill="white"/>
<path d="M224.664 360.467L369.417 269.642L338.01 254.008L224.664 360.467Z" fill="#BEE6F3"/>
<path d="M224.932 360.241L225.228 360.044L297.139 314.525L369.234 269.331V269.98L337.855 254.29H338.194L224.932 360.241ZM224.411 360.72L224.664 360.481L337.799 253.797L337.954 253.656L338.151 253.74L369.586 269.247L370.192 269.529L369.628 269.895L296.956 315.512L224.411 360.72Z" fill="white"/>
<path d="M134.767 35.7915C134.767 35.7915 175.272 26.1353 185.878 54.6388C185.878 54.6388 195.525 75.3891 178.174 81.1829H16.6469C16.6469 81.1829 4.59123 83.5934 0.253427 67.6782C0.253427 67.6782 -5.70401 25.1485 41.2372 34.2409C41.2372 34.2409 51.8423 -1.81848 87.5165 0.112767C87.5165 0.0845735 121.754 -1.36738 134.767 35.7915Z" fill="white"/>
<path d="M274.155 266.625L244.086 347.836L254.606 341.21L288.957 287.657L274.155 266.625Z" fill="#F4CCA4"/>
<path d="M274.211 266.709V266.808L244.142 347.85L244.001 347.737L254.522 341.126L288.914 287.558L274.211 266.709ZM274.098 266.554L288.928 287.573L254.62 341.14L244.142 347.92L243.917 348.061L244.015 347.808L274.098 266.554Z" fill="#231F20"/>
<path d="M270.775 274.434L244.086 347.836L254.606 341.21L285.703 292.732L270.775 274.434Z" fill="#231F20"/>
<path d="M307.702 290.054L303.66 310.268L317.983 301.26L323.87 290.787L307.702 290.054Z" fill="#F4CCA4" stroke="#231F20" stroke-width="0.25" stroke-miterlimit="10"/>
<path d="M306.885 294.987L303.66 310.268L317.983 301.26L321.504 294.987H306.885Z" fill="#231F20"/>
<path d="M332.138 258.054L325.828 256.475C325.828 256.475 318.913 254.755 315.969 259.295C313.026 263.834 297.421 262.791 297.421 262.791L277.704 264.623C277.704 264.623 274.76 264.073 273.479 267.936C273.479 267.936 275.014 278.959 287.746 289.447C287.746 289.447 297.365 291.28 307.646 292.267C307.646 292.267 319.04 289.687 323.448 292.267C323.448 292.267 323.814 294.283 328.405 294.466L366.671 270.008L332.138 258.054Z" fill="#AA1F23"/>
<path d="M332.123 258.096L327.659 256.983C326.912 256.799 326.166 256.588 325.419 256.433C324.666 256.301 323.903 256.226 323.138 256.207C321.605 256.146 320.078 256.435 318.673 257.053C317.984 257.381 317.36 257.83 316.828 258.378C316.265 258.9 315.955 259.633 315.42 260.154C314.177 261.109 312.731 261.765 311.195 262.072C309.699 262.428 308.178 262.673 306.646 262.805C303.577 263.061 300.495 263.098 297.421 262.917L277.704 264.863C277.248 264.819 276.788 264.869 276.352 265.01C275.916 265.151 275.513 265.379 275.169 265.68C274.821 265.993 274.526 266.359 274.295 266.766C274.062 267.176 273.864 267.605 273.704 268.049V267.964C274.142 270.094 274.838 272.162 275.774 274.124C276.71 276.086 277.798 277.971 279.028 279.763C280.286 281.546 281.67 283.237 283.168 284.824C283.886 285.641 284.703 286.36 285.478 287.136C286.253 287.911 287.112 288.545 287.928 289.292H287.816C294.388 290.486 301.017 291.393 307.702 292.013H307.618C310.247 291.438 312.917 291.066 315.603 290.899C316.953 290.801 318.309 290.801 319.659 290.899C321.044 290.984 322.395 291.354 323.631 291.985H323.729V292.14C323.883 292.512 324.142 292.831 324.476 293.056C324.846 293.304 325.249 293.499 325.673 293.634C326.559 293.906 327.478 294.058 328.405 294.085H328.222L347.334 281.835C353.7 277.733 360.136 273.744 366.53 269.698V270.135L332.123 258.096ZM332.123 258.026L366.784 269.783L367.262 269.938L366.84 270.22C360.474 274.322 354.164 278.48 347.756 282.526L328.645 294.734H328.56H328.462C327.477 294.714 326.499 294.553 325.56 294.254C325.057 294.108 324.581 293.879 324.152 293.578C323.686 293.264 323.339 292.802 323.166 292.267L323.321 292.478C322.161 291.9 320.897 291.559 319.603 291.477C318.281 291.379 316.953 291.379 315.631 291.477C312.98 291.643 310.344 292.001 307.744 292.549H307.646C300.97 291.928 294.323 290.97 287.731 289.729H287.661C286.83 288.996 285.985 288.32 285.182 287.544C284.379 286.769 283.577 286.022 282.858 285.19C281.351 283.583 279.963 281.868 278.704 280.059C277.46 278.239 276.367 276.32 275.436 274.322C274.48 272.327 273.78 270.219 273.352 268.049V267.95C273.514 267.459 273.726 266.987 273.986 266.54C274.244 266.104 274.567 265.71 274.943 265.37C275.326 265.036 275.774 264.785 276.259 264.632C276.744 264.479 277.255 264.428 277.76 264.482L297.477 262.762C300.542 262.943 303.615 262.906 306.674 262.65C308.201 262.523 309.717 262.282 311.209 261.931C312.713 261.631 314.125 260.984 315.336 260.042C315.899 259.548 316.223 258.815 316.744 258.28C317.286 257.722 317.926 257.268 318.631 256.94C320.049 256.317 321.591 256.028 323.138 256.095C323.908 256.111 324.676 256.191 325.434 256.334C326.194 256.489 326.926 256.701 327.673 256.884L332.123 258.026Z" fill="#231F20"/>
<path d="M365.615 204.064C354.85 201.821 343.669 202.686 333.377 206.559C333.377 206.559 305.688 216.92 283.577 212.522C283.577 212.522 258.775 207.179 252.846 202.175L246.649 212.522C246.649 212.522 272.831 231.651 299.548 233.032C299.548 233.032 321.321 233.723 331.377 228.338C331.377 228.338 327.067 247.228 324.729 256.334L387.797 279.312C387.797 279.312 402.951 256.969 385.177 220.106C383.25 216.189 380.507 212.73 377.132 209.963C373.758 207.196 369.831 205.185 365.615 204.064Z" fill="#AA1F23" stroke="#231F20" stroke-width="0.75" stroke-miterlimit="10"/>
<path d="M368.234 236.824C368.234 236.824 375.121 260.126 368.234 278.198C368.234 278.198 362.727 296.947 339.982 311.297L345.771 319.431C345.771 319.431 374.572 306.462 387.656 280.256C387.656 280.256 402.261 252.063 385.177 218.344C385.177 218.344 378.008 205.206 358.728 201.428" fill="#AA1F23"/>
<path d="M368.277 236.81C369.206 240.188 369.926 243.62 370.431 247.087C370.955 250.552 371.275 254.044 371.389 257.547C371.478 261.055 371.313 264.564 370.896 268.049C370.422 271.531 369.592 274.956 368.417 278.269C367.2 281.774 365.584 285.128 363.601 288.263C361.655 291.416 359.455 294.405 357.024 297.201C356.418 297.905 355.77 298.61 355.136 299.259C354.503 299.907 353.869 300.668 353.193 301.232L351.179 303.149L349.08 304.968C347.672 306.222 346.179 307.266 344.728 308.422C343.278 309.578 341.672 310.508 340.151 311.565L340.236 311.1L346.038 319.22L345.616 319.107C357.157 313.423 367.521 305.608 376.163 296.073C380.46 291.318 384.115 286.019 387.036 280.313C389.695 274.503 391.461 268.325 392.275 261.987C393.106 255.633 393.106 249.198 392.275 242.844C391.395 236.492 389.759 230.269 387.402 224.307L385.431 219.923C384.83 218.45 384.003 217.08 382.98 215.863C380.986 213.361 378.675 211.129 376.107 209.223C373.526 207.321 370.75 205.7 367.826 204.388C364.869 203.119 361.799 202.133 358.657 201.442V201.343C361.878 201.945 365.033 202.856 368.079 204.064C371.069 205.306 373.905 206.891 376.53 208.786C379.157 210.687 381.524 212.924 383.571 215.44C384.635 216.683 385.504 218.08 386.149 219.584L388.191 223.996C390.651 230.003 392.381 236.283 393.346 242.703C394.233 249.143 394.233 255.674 393.346 262.114C392.901 265.331 392.243 268.514 391.374 271.643C390.543 274.796 389.407 277.861 387.98 280.792C384.986 286.556 381.251 291.902 376.868 296.693C368.081 306.263 357.569 314.088 345.883 319.755L345.63 319.882L345.545 319.657L339.785 311.509L339.588 311.241L339.87 311.044C341.391 310.015 342.954 309.028 344.433 307.942C345.912 306.857 347.404 305.785 348.77 304.545L350.869 302.755L352.855 300.852C353.531 300.231 354.179 299.569 354.798 298.892C355.418 298.216 356.066 297.567 356.671 296.862C359.099 294.1 361.303 291.149 363.263 288.038C365.243 284.941 366.868 281.631 368.108 278.17C369.297 274.893 370.142 271.501 370.628 268.049C371.077 264.581 371.265 261.085 371.192 257.589C371.105 254.098 370.813 250.614 370.319 247.157C369.837 243.692 369.141 240.26 368.234 236.881L368.277 236.81Z" fill="#231F20"/>
<path d="M355.953 213.776C356.83 214.219 357.789 214.474 358.77 214.523L356.052 221.233C356.052 221.233 347.714 214.58 354.319 208.42V210.746C354.296 211.351 354.435 211.951 354.722 212.485C355.01 213.018 355.435 213.464 355.953 213.776Z" fill="#414042"/>
<path d="M325.687 254.008V252.176C343.996 245.409 358.911 214.664 358.911 214.664C363.277 214.834 363.77 212.338 363.77 212.338C356.84 230.557 343.245 245.455 325.743 254.008" fill="#414042"/>
<path d="M365.615 200.004L363.854 212.141C363.854 212.141 363.305 215.454 358.066 214.481C358.066 214.481 353.136 214.481 354.305 208.42L355.179 202.076L365.615 200.004Z" fill="#F4CCA4"/>
<path d="M361.037 188.741C362.658 188.75 364.269 188.502 365.812 188.008C365.812 188.008 366.784 184.498 369.558 187.049C369.558 187.049 371.924 188.205 370.769 194.619C369.808 197.371 367.983 199.737 365.566 201.363C363.149 202.99 360.27 203.789 357.362 203.641C354.578 203.354 352 202.04 350.131 199.955C348.262 197.871 347.235 195.164 347.249 192.363C347.249 192.363 352.489 178.69 361.037 188.741Z" fill="#F4CCA4"/>
<path d="M383.67 183.863C383.67 183.863 388.346 174.08 378.149 172.149C376.728 172.028 375.296 172.166 373.924 172.558C371.445 161.802 360.699 162.352 360.699 162.352C348.573 162.352 348.432 173.248 348.432 173.248C341.954 174.658 341.137 181.523 341.137 181.523C341.264 191.391 347.235 192.97 347.235 192.97V192.42C349.672 186.781 352.517 185.696 352.517 185.696C357.601 183.99 360.967 188.741 360.967 188.741C362.592 188.83 364.218 188.58 365.741 188.008L366.798 186.598C367.237 186.377 367.735 186.303 368.219 186.387C368.703 186.471 369.148 186.708 369.488 187.063C369.918 187.352 370.271 187.742 370.517 188.199C370.762 188.656 370.892 189.166 370.896 189.685C371.239 191.324 371.181 193.022 370.727 194.633C369.72 197.418 367.862 199.815 365.417 201.484C365.417 201.484 376.515 200.159 377.346 192.575C378.376 192.52 379.379 192.235 380.285 191.742C381.19 191.249 381.975 190.561 382.58 189.726C383.186 188.891 383.598 187.932 383.787 186.918C383.975 185.904 383.935 184.86 383.67 183.863Z" fill="#231F20"/>
<path d="M252.311 200.906L244.973 212.367L257.184 220.303C257.184 220.303 268.296 211.197 266.648 206.968L252.311 200.906Z" fill="white"/>
<path d="M252.437 200.962V201.075L245.156 212.437V212.254L257.353 220.219H257.24C259.414 218.416 261.448 216.451 263.324 214.34C264.271 213.291 265.115 212.153 265.845 210.943C266.255 210.375 266.543 209.73 266.694 209.046C266.844 208.362 266.852 207.655 266.718 206.968L252.437 200.962ZM252.184 200.85H252.311L266.676 206.883C266.822 207.582 266.822 208.305 266.674 209.004C266.526 209.703 266.234 210.363 265.817 210.943C265.084 212.161 264.245 213.312 263.31 214.383C261.434 216.507 259.4 218.486 257.226 220.303H257.156L244.889 212.522L244.776 212.451L244.86 212.338L252.184 200.85Z" fill="#231F20"/>
<path d="M339.644 311.086L346.264 319.91L357.221 312.862V312.608C357.221 312.608 353.165 305.56 349.813 304.009L339.644 311.086Z" fill="white"/>
<path d="M339.743 311.015L339.813 311.114L346.362 319.826H346.179L357.178 312.777V312.848V312.608C356.213 310.958 355.135 309.375 353.953 307.872C353.378 307.116 352.753 306.4 352.08 305.729C351.42 305.042 350.66 304.457 349.827 303.995L339.743 311.015ZM339.546 311.156L339.644 311.086L349.784 304.037C350.636 304.491 351.41 305.076 352.08 305.771C352.763 306.445 353.403 307.16 353.995 307.914C355.183 309.414 356.27 310.992 357.249 312.636V312.961L346.32 320.009L346.207 320.08V319.981L339.546 311.156Z" fill="#231F20"/>
<path d="M249.959 202.964C249.959 202.964 249.086 194.76 244.973 192.561C244.973 192.561 243.41 192.688 243.818 194.619L243.748 199.243L240.452 204.966L233.974 200.906C233.974 200.906 233.861 208.828 244.973 209.66L249.959 202.964Z" fill="#F4CCA4"/>
<path d="M249.776 203.147V202.922C249.652 201.973 249.473 201.031 249.24 200.103C249.017 199.141 248.721 198.199 248.353 197.283C247.75 195.408 246.534 193.79 244.903 192.688H244.987C244.787 192.71 244.595 192.78 244.428 192.893C244.261 193.006 244.124 193.158 244.029 193.336C243.867 193.73 243.838 194.165 243.945 194.577L243.874 199.186L240.551 204.91V204.994H240.466L234.002 200.906H234.114C234.198 202.185 234.571 203.429 235.206 204.542C235.84 205.656 236.719 206.611 237.776 207.334C238.842 208.057 240.016 208.604 241.255 208.955C241.86 209.124 242.494 209.251 243.128 209.392L245.043 209.632L249.776 203.147ZM250.043 202.795L249.902 202.964L244.987 209.702L243.058 209.477C242.424 209.336 241.79 209.209 241.17 209.04C239.922 208.697 238.738 208.154 237.664 207.433C236.58 206.71 235.678 205.746 235.028 204.616C234.378 203.486 233.998 202.221 233.917 200.92V200.779L234.03 200.85L240.523 204.895H240.396L243.677 199.158V194.534C243.558 194.067 243.587 193.574 243.762 193.125C243.877 192.902 244.046 192.711 244.252 192.569C244.458 192.426 244.696 192.336 244.945 192.307C246.647 193.423 247.923 195.082 248.564 197.015C248.937 197.932 249.243 198.874 249.48 199.835C249.745 200.807 249.948 201.796 250.085 202.795H250.043Z" fill="#231F20"/>
<path d="M338.334 313.088C338.334 313.088 330.969 313.778 329.884 316.457C330.97 317.008 332.201 317.205 333.405 317.021C333.405 317.021 329.757 319.628 329.884 321.01C332.395 321.147 334.897 320.602 337.123 319.431C337.123 319.431 333.123 321.701 332.898 325.154C335.175 324.826 337.358 324.024 339.306 322.8C339.306 322.8 336.489 325.154 336.489 325.972C339.535 324.642 342.087 322.389 343.785 319.53L338.334 313.088Z" fill="#F4CCA4"/>
<path d="M338.503 313.2H338.334C338.123 313.271 337.616 313.299 337.264 313.355L336.109 313.553C335.349 313.708 334.588 313.877 333.842 314.103C333.096 314.316 332.374 314.604 331.687 314.962C330.996 315.274 330.427 315.804 330.067 316.471L329.997 316.288C331.039 316.848 332.24 317.041 333.405 316.837L334.166 316.612L333.532 317.091C332.797 317.613 332.1 318.188 331.447 318.811C331.125 319.124 330.824 319.458 330.546 319.812C330.266 320.131 330.093 320.53 330.053 320.954L329.94 320.841C332.427 320.989 334.906 320.453 337.109 319.29L337.222 319.473C336.16 320.103 335.208 320.903 334.405 321.842C333.62 322.766 333.129 323.906 332.997 325.112L332.898 325.027C335.168 324.734 337.346 323.944 339.278 322.716L339.363 322.814C338.827 323.265 338.292 323.759 337.799 324.224C337.56 324.478 337.32 324.746 337.095 325.013C336.864 325.265 336.699 325.57 336.616 325.901C338.129 325.253 339.523 324.358 340.743 323.251C341.977 322.158 343.044 320.89 343.912 319.487L338.503 313.2ZM338.278 312.947L338.405 313.088L343.869 319.516C343.008 320.927 341.945 322.204 340.715 323.308C339.464 324.432 338.036 325.342 336.489 326V325.916C336.578 325.56 336.752 325.231 336.996 324.957C337.221 324.681 337.461 324.417 337.715 324.168C338.208 323.646 338.729 323.167 339.264 322.758V322.857C338.322 323.527 337.281 324.045 336.18 324.393C335.107 324.798 333.999 325.1 332.87 325.295H332.757V325.183C332.907 323.934 333.422 322.757 334.236 321.799C335.042 320.848 335.993 320.03 337.053 319.375L337.165 319.558C334.924 320.746 332.403 321.306 329.87 321.179H329.757V321.066C329.782 320.577 329.971 320.11 330.293 319.741C330.571 319.375 330.877 319.031 331.208 318.712C331.864 318.045 332.56 317.419 333.292 316.837L333.419 317.091C332.805 317.253 332.16 317.253 331.546 317.091C330.945 316.963 330.359 316.769 329.8 316.513H329.659L329.729 316.372C330.109 315.646 330.718 315.066 331.462 314.723C332.169 314.357 332.909 314.06 333.673 313.835C334.427 313.605 335.193 313.417 335.968 313.271L337.137 313.059C337.518 313.017 337.771 312.961 338.208 312.947H338.278Z" fill="#231F20"/>
<path d="M298.928 126.32H225.073C219.519 126.32 215.017 130.827 215.017 136.386V175.278C215.017 180.837 219.519 185.343 225.073 185.343H298.928C304.482 185.343 308.984 180.837 308.984 175.278V136.386C308.984 130.827 304.482 126.32 298.928 126.32Z" fill="#F7941D"/>
<path d="M228.523 181.904L238.987 200.004L246.564 181.904H228.523Z" fill="#F7941D"/>
<path d="M243.635 157.615C246.591 157.615 248.987 155.217 248.987 152.258C248.987 149.3 246.591 146.902 243.635 146.902C240.679 146.902 238.283 149.3 238.283 152.258C238.283 155.217 240.679 157.615 243.635 157.615Z" fill="white"/>
<path d="M262.268 157.615C265.224 157.615 267.62 155.217 267.62 152.258C267.62 149.3 265.224 146.902 262.268 146.902C259.312 146.902 256.916 149.3 256.916 152.258C256.916 155.217 259.312 157.615 262.268 157.615Z" fill="white"/>
<path d="M280.366 157.615C283.321 157.615 285.717 155.217 285.717 152.258C285.717 149.3 283.321 146.902 280.366 146.902C277.41 146.902 275.014 149.3 275.014 152.258C275.014 155.217 277.41 157.615 280.366 157.615Z" fill="white"/>
<path d="M505.326 78.1803H519.621C525.174 78.1803 529.676 73.674 529.676 68.1152V58.7409C529.676 53.1822 525.174 48.6759 519.621 48.6759H505.326C499.772 48.6759 495.27 53.1822 495.27 58.7409V68.1152C495.27 73.674 499.772 78.1803 505.326 78.1803Z" fill="#F7941D"/>
<path d="M358.587 345.031C358.587 345.031 381.74 339.519 387.797 355.786C387.797 355.786 393.303 367.642 383.388 370.955H291.083C291.083 370.955 284.182 372.364 281.703 363.23C281.703 363.23 278.309 338.941 305.125 344.128C305.125 344.128 311.195 323.519 331.588 324.619C331.588 324.647 351.179 323.886 358.587 345.031Z" fill="white"/>
<path d="M512.677 77.1935C512.677 77.1935 530.986 72.8235 535.803 85.6515C535.803 85.6515 540.169 95.0399 532.31 97.6619H459.23C459.23 97.6619 453.779 98.7614 451.821 91.5439C451.821 91.5439 449.131 72.316 470.356 76.4323C470.356 76.4323 475.158 60.1083 491.298 60.9259C491.298 60.9823 506.79 60.2775 512.677 77.1935Z" fill="white"/>
</g>
<defs>
<clipPath id="clip0">
<rect width="537" height="391" fill="white"/>
</clipPath>
</defs>
</svg>
