<svg width="40" height="40" viewBox="0 0 40 40" fill="none" xmlns="http://www.w3.org/2000/svg">
<path fill-rule="evenodd" clip-rule="evenodd" d="M28.195 17.825H28.965C29.3493 17.8304 29.6596 18.1407 29.665 18.525V21.445C29.6596 21.8294 29.3493 22.1396 28.965 22.145H26.725V27.585H28.335C28.7216 27.585 29.035 27.8984 29.035 28.285C29.035 28.6716 28.7216 28.985 28.335 28.985H11.695C11.3084 28.985 10.995 28.6716 10.995 28.285C10.995 27.8984 11.3084 27.585 11.695 27.585H13.275V22.145H11.035C10.6484 22.145 10.335 21.8316 10.335 21.445V18.525C10.335 18.1384 10.6484 17.825 11.035 17.825H11.805V13.285C11.4637 13.0642 11.2511 12.6912 11.235 12.285C11.235 11.5836 11.8036 11.015 12.505 11.015C13.2064 11.015 13.775 11.5836 13.775 12.285C13.7556 12.6903 13.5438 13.0619 13.205 13.285V17.825H13.625C14.4578 15.3413 16.6524 13.5638 19.255 13.265V12.765C19.255 12.3784 19.5684 12.065 19.955 12.065C20.3416 12.065 20.655 12.3784 20.655 12.765V13.265C23.2763 13.5454 25.4946 15.3262 26.335 17.825H26.795V13.285C26.4537 13.0642 26.241 12.6912 26.225 12.285C26.225 11.5836 26.7936 11.015 27.495 11.015C28.1964 11.015 28.765 11.5836 28.765 12.285C28.7456 12.6903 28.5338 13.0619 28.195 13.285V17.825ZM14.675 21.265V21.445V24.345H17.575L19.575 22.545C19.8418 22.3137 20.2381 22.3137 20.505 22.545L22.505 24.345H25.335V21.265H14.675ZM19.335 14.695V16.175C19.335 16.5616 19.6484 16.875 20.035 16.875C20.4216 16.875 20.735 16.5616 20.735 16.175V14.695C23.3328 15.0494 25.2851 17.2436 25.335 19.865H14.685C14.7342 17.2253 16.7152 15.0227 19.335 14.695ZM11.735 19.225V20.745H13.275V19.225H11.735ZM14.675 27.585V25.745H17.755C17.9236 25.7448 18.0867 25.6845 18.215 25.575L19.995 23.985L21.775 25.555C21.9067 25.6652 22.0732 25.7254 22.245 25.725H25.335V27.585H14.675ZM26.725 20.745H28.265V19.225H26.725V20.745Z" fill="white" fill-opacity="0.75"/>
</svg>
