<svg width="21" height="20" viewBox="0 0 21 20" fill="none" xmlns="http://www.w3.org/2000/svg">
<path d="M13.9401 4.56H17.5201L16.7301 5.36C16.5438 5.54736 16.4393 5.80081 16.4393 6.065C16.4393 6.32918 16.5438 6.58264 16.7301 6.77C16.9175 6.95625 17.1709 7.06079 17.4351 7.06079C17.6993 7.06079 17.9527 6.95625 18.1401 6.77L20.6401 4.27C20.8264 4.08263 20.9309 3.82918 20.9309 3.565C20.9309 3.30081 20.8264 3.04736 20.6401 2.86L18.1401 0.359998C17.9488 0.196171 17.7027 0.110565 17.451 0.120286C17.1994 0.130008 16.9606 0.23434 16.7825 0.412435C16.6044 0.590529 16.5001 0.829268 16.4904 1.08094C16.4807 1.33262 16.5663 1.5787 16.7301 1.77L17.5201 2.56H13.9401C13.6749 2.56 13.4205 2.66535 13.233 2.85289C13.0455 3.04043 12.9401 3.29478 12.9401 3.56C12.9401 3.82521 13.0455 4.07957 13.233 4.2671C13.4205 4.45464 13.6749 4.56 13.9401 4.56ZM18.4401 11C18.2201 11 17.9901 10.93 17.7701 10.88C17.3246 10.7818 16.8868 10.6515 16.4601 10.49C15.9962 10.3212 15.4862 10.33 15.0284 10.5146C14.5706 10.6992 14.1972 11.0466 13.9801 11.49L13.7601 11.94C12.7861 11.3982 11.8911 10.7252 11.1001 9.94C10.3149 9.14901 9.64192 8.25399 9.1001 7.28L9.5201 7C9.96347 6.78291 10.3109 6.40953 10.4955 5.95169C10.6801 5.49385 10.6889 4.98391 10.5201 4.52C10.3613 4.09242 10.231 3.6548 10.1301 3.21C10.0801 2.99 10.0401 2.76 10.0101 2.53C9.88867 1.82562 9.51973 1.18774 8.96972 0.731237C8.41972 0.274734 7.7248 0.0296066 7.0101 0.0399978H4.0101C3.57913 0.0359512 3.15235 0.124811 2.75881 0.300528C2.36527 0.476245 2.01421 0.734694 1.72953 1.05828C1.44485 1.38187 1.23324 1.76299 1.10909 2.17571C0.984942 2.58843 0.95118 3.02306 1.0101 3.45C1.54284 7.63938 3.45613 11.5319 6.44775 14.5126C9.43938 17.4934 13.3388 19.3925 17.5301 19.91H17.9101C18.6475 19.9111 19.3595 19.6405 19.9101 19.15C20.2265 18.867 20.4792 18.5202 20.6516 18.1323C20.8239 17.7445 20.9121 17.3244 20.9101 16.9V13.9C20.8979 13.2054 20.6449 12.5366 20.1944 12.0077C19.744 11.4788 19.1239 11.1226 18.4401 11ZM18.9401 17C18.9399 17.142 18.9095 17.2823 18.8509 17.4116C18.7923 17.5409 18.7068 17.6563 18.6001 17.75C18.4884 17.8465 18.3577 17.9185 18.2165 17.9616C18.0753 18.0046 17.9267 18.0177 17.7801 18C14.035 17.5198 10.5563 15.8065 7.89282 13.1303C5.2293 10.4541 3.53251 6.96733 3.0701 3.22C3.05419 3.07352 3.06813 2.92533 3.1111 2.78439C3.15407 2.64345 3.22517 2.51269 3.3201 2.4C3.41381 2.29333 3.52916 2.20784 3.65848 2.14921C3.7878 2.09059 3.92812 2.06018 4.0701 2.06H7.0701C7.30265 2.05482 7.52972 2.13088 7.71224 2.27507C7.89476 2.41926 8.02131 2.62257 8.0701 2.85C8.1101 3.12333 8.1601 3.39333 8.2201 3.66C8.33562 4.18714 8.48936 4.70518 8.6801 5.21L7.2801 5.86C7.1604 5.91492 7.05272 5.99294 6.96326 6.08959C6.87379 6.18624 6.8043 6.29961 6.75877 6.42319C6.71324 6.54677 6.69257 6.67813 6.69795 6.80972C6.70332 6.94131 6.73464 7.07054 6.7901 7.19C8.2293 10.2728 10.7073 12.7508 13.7901 14.19C14.0336 14.29 14.3066 14.29 14.5501 14.19C14.6748 14.1454 14.7894 14.0765 14.8873 13.9872C14.9851 13.8979 15.0643 13.7901 15.1201 13.67L15.7401 12.27C16.2571 12.4549 16.7847 12.6085 17.3201 12.73C17.5868 12.79 17.8568 12.84 18.1301 12.88C18.3575 12.9288 18.5608 13.0553 18.705 13.2379C18.8492 13.4204 18.9253 13.6475 18.9201 13.88L18.9401 17Z" fill="#C4CCD3"/>
</svg>
