<svg width="18" height="17" viewBox="0 0 18 17" fill="none" xmlns="http://www.w3.org/2000/svg">
<path fill-rule="evenodd" clip-rule="evenodd" d="M16.136 1.42183V1.07344C16.136 0.664847 16.4784 0.333618 16.9007 0.333618C17.3231 0.333618 17.6654 0.664847 17.6654 1.07344V14.7204C17.6654 15.129 17.3231 15.4602 16.9007 15.4602C16.4784 15.4602 16.136 15.129 16.136 14.7204V14.386L8.06151 12.6245V15.6031C8.06151 15.7594 8.03441 15.9146 7.98134 16.0622C7.71926 16.7911 6.89601 17.1765 6.14254 16.923L3.59352 16.0652C3.01281 15.8698 2.6236 15.3402 2.6236 14.7453V11.4382L1.39177 11.1695C0.771736 11.0342 0.331333 10.5014 0.331333 9.88644V6.06125C0.331333 5.45091 0.765339 4.92077 1.37944 4.78097L16.136 1.42183ZM1.85798 9.7536V6.19008L12.2259 3.82997V12.0154L1.85798 9.7536ZM13.7553 12.349V3.48182L16.1325 2.94068V12.8676L13.7553 12.349ZM6.53199 15.4856L4.1529 14.685V12.0188L6.53199 12.5192V15.4856Z" fill="white" fill-opacity="0.75"/>
</svg>
