<svg width="20" height="20" viewBox="0 0 20 20" fill="none" xmlns="http://www.w3.org/2000/svg">
<path fill-rule="evenodd" clip-rule="evenodd" d="M3.94001 1H16.06C17.6837 1 19 2.31628 19 3.94V16.06C19 17.6837 17.6837 19 16.06 19H3.94001C2.3163 19 1.00002 17.6837 1.00002 16.06V3.94C1.00002 2.31628 2.3163 1 3.94001 1ZM10 3.92C8.34318 3.92 7.00003 5.26315 7.00003 6.92C7.00003 8.57685 8.34318 9.92 10 9.92C11.6569 9.92 13 8.57685 13 6.92C13 5.26315 11.6569 3.92 10 3.92ZM10 8.46C9.13293 8.46 8.43002 7.75709 8.43002 6.89C8.43002 6.02291 9.13293 5.32 10 5.32C10.8671 5.32 11.57 6.02291 11.57 6.89C11.57 7.30639 11.4046 7.70573 11.1102 8.00016C10.8157 8.29459 10.4164 8.46 10 8.46ZM5.78001 17.6L6.45001 13.6C6.5561 12.8285 7.22139 12.2577 8.00001 12.27H12C12.7542 12.2698 13.3976 12.8158 13.52 13.56L14.19 17.56L5.78001 17.6ZM16.06 17.6C16.9105 17.6 17.6 16.9105 17.6 16.06V3.94C17.6 3.53156 17.4378 3.13986 17.149 2.85105C16.8602 2.56225 16.4685 2.4 16.06 2.4H3.94002C3.08951 2.4 2.40002 3.08948 2.40002 3.94V16.06C2.40002 16.4684 2.56227 16.8601 2.85108 17.1489C3.13989 17.4377 3.53159 17.6 3.94002 17.6H4.36002L5.10002 13.33C5.33097 11.9089 6.56024 10.8661 8.00002 10.87H12C13.4511 10.8512 14.6974 11.8975 14.93 13.33L15.64 17.6H16.06Z" fill="white" fill-opacity="0.75"/>
</svg>
