<svg width="20" height="20" viewBox="0 0 20 20" fill="none" xmlns="http://www.w3.org/2000/svg">
<path fill-rule="evenodd" clip-rule="evenodd" d="M10 0C4.47715 0 0 4.47715 0 10C0 15.5228 4.47715 20 10 20C15.5228 20 20 15.5228 20 10C20 7.34784 18.9464 4.8043 17.0711 2.92893C15.1957 1.05357 12.6522 0 10 0ZM10 18.6C5.25035 18.6 1.4 14.7496 1.4 10C1.4 5.25035 5.25035 1.4 10 1.4C14.7496 1.4 18.6 5.25035 18.6 10C18.5945 14.7474 14.7474 18.5945 10 18.6ZM13.43 5.57C13.6243 5.74617 13.9008 5.79893 14.1463 5.7067C14.3919 5.61446 14.5652 5.39271 14.5955 5.13218C14.6258 4.87165 14.5078 4.61606 14.29 4.47C12.4761 3.05185 10.0807 2.61643 7.88374 3.30548C5.68676 3.99453 3.96913 5.71993 3.29 7.92C3.18001 8.28998 3.39027 8.67918 3.76 8.79C3.82582 8.805 3.89418 8.805 3.96 8.79C4.26818 8.78642 4.53886 8.58442 4.63 8.29C5.17962 6.54002 6.55004 5.16926 8.29988 4.61919C10.0497 4.06913 11.958 4.40925 13.41 5.53L13.43 5.57ZM15.28 6.88C15.5568 6.60544 16.0032 6.60544 16.28 6.88C16.548 7.15558 16.548 7.59442 16.28 7.87L11.89 12.26C11.9621 12.4553 11.9993 12.6618 12 12.87C12 13.9746 11.1046 14.87 10 14.87C8.89543 14.87 8 13.9746 8 12.87C8 11.7654 8.89543 10.87 10 10.87C10.3537 10.8727 10.6997 10.9731 11 11.16L15.28 6.88ZM9.4 12.87C9.4 13.2014 9.66863 13.47 10 13.47C10.3314 13.47 10.6 13.2014 10.6 12.87C10.6 12.5386 10.3314 12.27 10 12.27C9.66863 12.27 9.4 12.5386 9.4 12.87Z" fill="white" fill-opacity="0.75"/>
</svg>
