<svg width="40" height="40" viewBox="0 0 40 40" fill="none" xmlns="http://www.w3.org/2000/svg">
<path d="M0 8C0 3.58172 3.58172 0 8 0H32C36.4183 0 40 3.58172 40 8V32C40 36.4183 36.4183 40 32 40H8C3.58172 40 0 36.4183 0 32V8Z" fill="#F5F7F9" fill-opacity="0.16"/>
<path fill-rule="evenodd" clip-rule="evenodd" d="M28 20.6003C28.0048 20.5704 28.0048 20.5401 28 20.5103L26 13.5102C25.9124 13.199 25.6231 12.9882 25.3 13.0002H14.7C14.3769 12.9882 14.0875 13.199 14 13.5102L12 20.5103C11.9951 20.5401 11.9951 20.5704 12 20.6003C11.9962 20.6335 11.9962 20.667 12 20.7003V26.3003C12 26.6869 12.3134 27.0003 12.7 27.0003H27.3C27.6866 27.0003 28 26.6869 28 26.3003V20.7003C28.0038 20.667 28.0038 20.6335 28 20.6003ZM15.23 14.4002H24.77L26.37 20.0002H22.8C22.4134 20.0002 22.1 20.3136 22.1 20.7002C22.1 21.86 21.1598 22.8002 20 22.8002C18.8402 22.8002 17.9 21.86 17.9 20.7002C17.9 20.5146 17.8262 20.3365 17.695 20.2053C17.5637 20.074 17.3856 20.0002 17.2 20.0002H13.63L15.23 14.4002ZM13.4 21.4002V25.6002H26.6V21.4002H23.43C23.0987 23.0315 21.6645 24.2038 20 24.2038C18.3355 24.2038 16.9012 23.0315 16.57 21.4002H13.4Z" fill="white"/>
</svg>
