<svg width="28" height="28" viewBox="0 0 28 28" fill="none" xmlns="http://www.w3.org/2000/svg">
<path opacity="0.01" d="M28 0H0V28H28V0Z" fill="white"/>
<path d="M22.4004 5.425C23.9754 5.775 25.2004 7.175 25.2004 8.75V9.275C25.2004 10.5 24.1504 11.55 22.9254 11.55H20.6504C19.4254 11.55 18.3754 10.5 18.3754 9.275C18.3754 9.1 18.2004 8.925 18.0254 8.925C15.4004 8.75 12.9504 8.75 10.3254 8.925C10.1504 8.925 9.97538 9.1 9.97538 9.275C9.97538 10.5 8.92539 11.55 7.70039 11.55H5.42538C4.20038 11.55 3.15039 10.5 3.15039 9.275V8.75C3.15039 7.175 4.37539 5.775 5.95039 5.425C11.0254 4.375 16.6254 4.2 22.4004 5.425Z" stroke="#FF5959" stroke-width="1.8" stroke-miterlimit="10" stroke-linecap="round" stroke-linejoin="round"/>
<path d="M22.5746 23.45H5.59961C5.07461 23.45 4.72461 23.1 4.72461 22.575C4.72461 17.85 8.57461 14 13.2996 14H15.2246C19.9496 14 23.7996 17.85 23.7996 22.575C23.4496 23.1 22.9246 23.45 22.5746 23.45Z" stroke="#475867" stroke-width="1.8" stroke-miterlimit="10" stroke-linecap="round" stroke-linejoin="round"/>
</svg>
