<svg width="14" height="14" viewBox="0 0 14 14" fill="none" xmlns="http://www.w3.org/2000/svg">
<path fill-rule="evenodd" clip-rule="evenodd" d="M11.4722 3.52668V12.1833C11.4722 12.6712 11.0717 13.0667 10.5777 13.0667H3.42219C2.9282 13.0667 2.52775 12.6712 2.52775 12.1833V3.52668H2.16997C1.87358 3.52668 1.6333 3.28939 1.6333 2.99668C1.6333 2.70397 1.87358 2.46668 2.16997 2.46668H4.31663V1.58335C4.31663 1.0955 4.71709 0.700012 5.21108 0.700012H8.78886C9.28285 0.700012 9.6833 1.0955 9.6833 1.58335V2.46668H11.83C12.1264 2.46668 12.3666 2.70397 12.3666 2.99668C12.3666 3.28939 12.1264 3.52668 11.83 3.52668H11.4722ZM3.60108 3.52668V12.0067H10.3989V3.52668H3.60108ZM8.43108 4.67501C8.72747 4.67501 8.96775 4.9123 8.96775 5.20501V10.3283C8.96775 10.6211 8.72747 10.8583 8.43108 10.8583C8.13469 10.8583 7.89441 10.6211 7.89441 10.3283V5.20501C7.89441 4.9123 8.13469 4.67501 8.43108 4.67501ZM5.74775 4.67501C6.04414 4.67501 6.28441 4.9123 6.28441 5.20501V10.3283C6.28441 10.6211 6.04414 10.8583 5.74775 10.8583C5.45135 10.8583 5.21108 10.6211 5.21108 10.3283V5.20501C5.21108 4.9123 5.45135 4.67501 5.74775 4.67501ZM5.38997 2.46668H8.60997V1.76001H5.38997V2.46668Z" fill="#12344D"/>
</svg>
