<svg width="12" height="14" viewBox="0 0 12 14" fill="none" xmlns="http://www.w3.org/2000/svg">
<path d="M7.90549 1.56536L7.15403 2.31682L6.71162 1.87668H1.11528V12.1233H9.63905V6.73799L10.7045 5.67252V12.3C10.7045 12.7879 10.307 13.1833 9.81663 13.1833H0.937698C0.447328 13.1833 0.0498047 12.7879 0.0498047 12.3V1.70001C0.0498047 1.21216 0.447328 0.816681 0.937698 0.816681H7.15295L7.90549 1.56536ZM11.4758 1.44811C12.0826 2.05491 12.0852 3.0362 11.4815 3.63989L6.46219 8.65917C6.43339 8.68797 6.39547 8.70588 6.35486 8.70988L4.51983 8.89039C4.27657 8.91432 4.05896 8.73641 4.03378 8.49303C4.03072 8.46346 4.03064 8.43367 4.03355 8.40411L4.21406 6.56908C4.21805 6.52846 4.23596 6.49055 4.26476 6.46175L9.28404 1.44247C9.88773 0.83878 10.869 0.841306 11.4758 1.44811ZM5.16612 7.75847L5.93208 7.68312L10.7287 2.88649C10.9185 2.69676 10.9177 2.38835 10.7269 2.19764C10.5362 2.00693 10.2278 2.00614 10.0381 2.19587L5.24146 6.99251L5.16612 7.75847Z" fill="#12344D"/>
</svg>
