<svg width="28" height="28" viewBox="0 0 28 28" fill="none" xmlns="http://www.w3.org/2000/svg">
<path opacity="0.01" d="M28 0H0V28H28V0Z" fill="white"/>
<path d="M21.6001 3.35999H6.40011C5.59385 3.35999 4.82061 3.68027 4.2505 4.25038C3.68039 4.82049 3.36011 5.59373 3.36011 6.39999V21.6C3.36011 22.4062 3.68039 23.1795 4.2505 23.7496C4.82061 24.3197 5.59385 24.64 6.40011 24.64H21.6001C22.4064 24.64 23.1796 24.3197 23.7497 23.7496C24.3198 23.1795 24.6401 22.4062 24.6401 21.6V6.39999C24.6401 5.59373 24.3198 4.82049 23.7497 4.25038C23.1796 3.68027 22.4064 3.35999 21.6001 3.35999ZM6.40011 5.18399H21.6001C21.919 5.19532 22.2218 5.32707 22.4474 5.5527C22.673 5.77834 22.8048 6.08109 22.8161 6.39999V15.2768L19.3353 11.796C18.9401 11.407 18.4078 11.189 17.8533 11.189C17.2988 11.189 16.7665 11.407 16.3713 11.796L12.2065 15.9608C12.1563 16.0057 12.0914 16.0305 12.0241 16.0305C11.9568 16.0305 11.8919 16.0057 11.8417 15.9608L11.0361 15.1552C10.8427 14.9612 10.6129 14.8074 10.3599 14.7024C10.1069 14.5974 9.83563 14.5433 9.56171 14.5433C9.28778 14.5433 9.01655 14.5974 8.76355 14.7024C8.51055 14.8074 8.28075 14.9612 8.08731 15.1552L5.18411 18.0584V6.39999C5.19544 6.08109 5.32719 5.77834 5.55283 5.5527C5.77846 5.32707 6.08121 5.19532 6.40011 5.18399ZM21.6001 22.816H6.40011C6.08121 22.8047 5.77846 22.6729 5.55283 22.4473C5.32719 22.2216 5.19544 21.9189 5.18411 21.6V20.6728L9.44011 16.4472C9.49027 16.4023 9.55521 16.3775 9.62251 16.3775C9.68981 16.3775 9.75474 16.4023 9.80491 16.4472L10.6105 17.2528C11.0069 17.6336 11.5352 17.8463 12.0849 17.8463C12.6346 17.8463 13.1629 17.6336 13.5593 17.2528L17.6481 13.1032C17.6736 13.0765 17.7043 13.0553 17.7383 13.0408C17.7722 13.0263 17.8088 13.0188 17.8457 13.0188C17.8826 13.0188 17.9192 13.0263 17.9531 13.0408C17.9871 13.0553 18.0178 13.0765 18.0433 13.1032L22.8161 17.876V21.6C22.8048 21.9189 22.673 22.2216 22.4474 22.4473C22.2218 22.6729 21.919 22.8047 21.6001 22.816Z" fill="#475867"/>
<path d="M9.89617 13.1184C10.5425 13.1184 11.1744 12.9267 11.7118 12.5676C12.2492 12.2085 12.6681 11.6982 12.9154 11.101C13.1628 10.5039 13.2275 9.84677 13.1014 9.21284C12.9753 8.57891 12.664 7.99661 12.207 7.53957C11.75 7.08254 11.1677 6.77129 10.5337 6.64519C9.8998 6.5191 9.24271 6.58381 8.64556 6.83116C8.04842 7.07851 7.53802 7.49738 7.17893 8.03479C6.81984 8.57221 6.62817 9.20405 6.62817 9.8504C6.63217 10.7159 6.97776 11.5448 7.58977 12.1568C8.20177 12.7688 9.03068 13.1144 9.89617 13.1184ZM9.89617 8.4064C10.1781 8.42126 10.4494 8.5184 10.6767 8.68583C10.9039 8.85326 11.0771 9.08362 11.1749 9.34844C11.2726 9.61325 11.2906 9.9009 11.2266 10.1758C11.1626 10.4507 11.0194 10.7009 10.8147 10.8953C10.6101 11.0897 10.3529 11.2199 10.0751 11.2697C9.79726 11.3195 9.5109 11.2869 9.25144 11.1757C8.99198 11.0645 8.7708 10.8797 8.61524 10.6442C8.45968 10.4086 8.37657 10.1327 8.37617 9.8504C8.39569 9.46059 8.56441 9.09322 8.84737 8.8244C9.13034 8.55558 9.50587 8.40591 9.89617 8.4064Z" fill="#F38221"/>
</svg>
