<svg width="43" height="42" viewBox="0 0 43 42" fill="none" xmlns="http://www.w3.org/2000/svg">
<g clip-path="url(#clip0)">
<rect x="0.143066" width="42" height="42" rx="5" fill="#FF9F43" fill-opacity="0.12"/>
<path fill-rule="evenodd" clip-rule="evenodd" d="M28.6431 13.5H13.6431C12.2264 13.5 11.1431 14.5833 11.1431 16V26C11.1431 27.4167 12.2264 28.5 13.6431 28.5H28.6431C30.0597 28.5 31.1431 27.4167 31.1431 26V16C31.1431 14.5833 30.0597 13.5 28.6431 13.5ZM13.6431 15.1667H28.6431C29.1431 15.1667 29.4764 15.5 29.4764 16V18.5H12.8097V16C12.8097 15.5 13.1431 15.1667 13.6431 15.1667ZM13.6431 26.8333H28.6431C29.1431 26.8333 29.4764 26.5 29.4764 26V20.1667H12.8097V26C12.8097 26.5 13.1431 26.8333 13.6431 26.8333Z" fill="black"/>
<mask id="mask0" mask-type="alpha" maskUnits="userSpaceOnUse" x="11" y="13" width="21" height="16">
<path fill-rule="evenodd" clip-rule="evenodd" d="M28.6431 13.5H13.6431C12.2264 13.5 11.1431 14.5833 11.1431 16V26C11.1431 27.4167 12.2264 28.5 13.6431 28.5H28.6431C30.0597 28.5 31.1431 27.4167 31.1431 26V16C31.1431 14.5833 30.0597 13.5 28.6431 13.5ZM13.6431 15.1667H28.6431C29.1431 15.1667 29.4764 15.5 29.4764 16V18.5H12.8097V16C12.8097 15.5 13.1431 15.1667 13.6431 15.1667ZM13.6431 26.8333H28.6431C29.1431 26.8333 29.4764 26.5 29.4764 26V20.1667H12.8097V26C12.8097 26.5 13.1431 26.8333 13.6431 26.8333Z" fill="white"/>
</mask>
<g mask="url(#mask0)">
<rect x="11.1431" y="11" width="20" height="20" fill="#FF9F43"/>
</g>
</g>
<defs>
<clipPath id="clip0">
<rect width="42" height="42" fill="white" transform="translate(0.143066)"/>
</clipPath>
</defs>
</svg>
