<svg width="16" height="16" viewBox="0 0 16 16" fill="none" xmlns="http://www.w3.org/2000/svg">
<path d="M2 6.0018C2.00089 5.93064 2.01444 5.86021 2.04 5.7938C2.06831 5.72364 2.11206 5.66075 2.168 5.6098L5.592 2.1698C5.6962 2.06023 5.84079 1.9982 5.992 1.9982C6.14321 1.9982 6.2878 2.06023 6.392 2.1698C6.61164 2.39124 6.61164 2.74836 6.392 2.9698L3.912 5.4258H10.456C12.4115 5.4302 13.9956 7.01433 14 8.9698V13.4418C14 13.7511 13.7493 14.0018 13.44 14.0018C13.1307 14.0018 12.88 13.7511 12.88 13.4418V8.9698C12.88 7.64432 11.8055 6.5698 10.48 6.5698H3.912L6.384 9.0178C6.59939 9.24097 6.59939 9.59463 6.384 9.8178C6.16256 10.0374 5.80544 10.0374 5.584 9.8178L2.168 6.3858C2.11206 6.33485 2.06831 6.27196 2.04 6.2018C2.0155 6.13786 2.00198 6.07024 2 6.0018Z" fill="#12344D"/>
</svg>
