<svg width="24" height="24" viewBox="0 0 24 24" fill="none" xmlns="http://www.w3.org/2000/svg">
<path opacity="0.01" d="M23.9684 0.0150757H0.0134277V23.9701H23.9684V0.0150757Z" fill="white"/>
<path opacity="0.01" d="M24 0H0V24H24V0Z" fill="white"/>
<path d="M8.09985 14.4L11.9999 10.5L15.7499 14.4" stroke="#00AEEF" stroke-width="1.8" stroke-miterlimit="10" stroke-linecap="round" stroke-linejoin="round"/>
<path d="M8.09985 20.1L11.9999 16.2L15.7499 20.1" stroke="#00AEEF" stroke-width="1.8" stroke-miterlimit="10" stroke-linecap="round" stroke-linejoin="round"/>
<path d="M3.75015 16.8C3.00015 16.5 2.40015 15.75 2.40015 14.85V12.75C3.60015 12.75 4.65015 11.7 4.65015 10.5C4.65015 9.30002 3.60015 8.25002 2.40015 8.25002V6.00002C2.40015 4.80002 3.30015 3.90002 4.50015 3.90002H19.3501C20.5501 3.90002 21.6001 4.80002 21.6001 6.00002V8.25002C20.4001 8.25002 19.3501 9.30002 19.3501 10.5C19.3501 11.7 20.4001 12.75 21.6001 12.75V14.85C21.6001 15.75 21.0001 16.5 20.2501 16.8" stroke="#475867" stroke-width="1.8" stroke-miterlimit="10" stroke-linecap="round" stroke-linejoin="round"/>
</svg>
