<svg width="24" height="24" viewBox="0 0 24 24" fill="none" xmlns="http://www.w3.org/2000/svg">
<path opacity="0.01" d="M24 0H0V24H24V0Z" fill="white"/>
<path opacity="0.01" d="M24 0H0V24H24V0Z" fill="white"/>
<path d="M17.1001 19.2V19.95C17.1001 20.85 16.3501 21.6 15.4501 21.6H12.7501C12.7501 20.4 11.7001 19.35 10.5001 19.35C9.30015 19.35 8.25015 20.4 8.25015 21.6H5.55015C4.65015 21.6 3.90015 20.85 3.90015 19.95V4.05002C3.90015 3.15002 4.65015 2.40002 5.55015 2.40002H8.25015C8.25015 3.60002 9.30015 4.65002 10.5001 4.65002C11.7001 4.65002 12.7501 3.60002 12.7501 2.40002H15.4501C16.3501 2.40002 17.1001 3.15002 17.1001 4.05002V4.80002" stroke="#475867" stroke-width="1.6" stroke-miterlimit="10" stroke-linecap="round" stroke-linejoin="round"/>
<path d="M20.0999 14.4H11.0999" stroke="#00AEEF" stroke-width="1.6" stroke-miterlimit="10" stroke-linecap="round" stroke-linejoin="round"/>
<path d="M20.0999 9.59998H11.0999" stroke="#00AEEF" stroke-width="1.6" stroke-miterlimit="10" stroke-linecap="round" stroke-linejoin="round"/>
</svg>
