<svg width="5" height="8" viewBox="0 0 5 8" fill="none" xmlns="http://www.w3.org/2000/svg">
<path d="M4.16003 4.00001C4.15882 4.14871 4.1017 4.29151 4.00003 4.40001L1.36003 7.03201C1.25583 7.14158 1.11124 7.20361 0.960028 7.20361C0.808819 7.20361 0.66423 7.14158 0.560028 7.03201C0.450456 6.92781 0.388428 6.78322 0.388428 6.63201C0.388428 6.4808 0.450456 6.33622 0.560028 6.23201L2.80003 4.00001L0.568028 1.76001C0.458456 1.65581 0.396427 1.51122 0.396427 1.36001C0.396427 1.2088 0.458456 1.06421 0.568028 0.960011C0.67223 0.85044 0.816819 0.788411 0.968028 0.788411C1.11924 0.788411 1.26383 0.85044 1.36803 0.960011L4.00003 3.60001C4.1017 3.70852 4.15882 3.85132 4.16003 4.00001Z" fill="#264966"/>
</svg>
