<svg width="10" height="6" viewBox="0 0 10 6" fill="none" xmlns="http://www.w3.org/2000/svg">
<path d="M4.99998 5.7C4.81411 5.6985 4.63562 5.6271 4.49998 5.5L1.20998 2.2C1.07302 2.06975 0.995483 1.88902 0.995483 1.7C0.995483 1.51099 1.07302 1.33026 1.20998 1.2C1.34024 1.06304 1.52097 0.985504 1.70998 0.985504C1.89899 0.985504 2.07973 1.06304 2.20998 1.2L4.99998 4L7.79998 1.21C7.93024 1.07304 8.11097 0.995504 8.29998 0.995504C8.48899 0.995504 8.66973 1.07304 8.79998 1.21C8.93695 1.34026 9.01448 1.52099 9.01448 1.71C9.01448 1.89902 8.93695 2.07975 8.79998 2.21L5.49998 5.5C5.36435 5.6271 5.18585 5.6985 4.99998 5.7Z" fill="#264966"/>
</svg>
