<svg width="43" height="42" viewBox="0 0 43 42" fill="none" xmlns="http://www.w3.org/2000/svg">
<g clip-path="url(#clip0)">
<rect x="0.542969" width="42" height="42" rx="5" fill="#28C76F" fill-opacity="0.12"/>
<path d="M28.793 17.4167L19.6263 26.5833C19.4596 26.75 19.293 26.8333 19.043 26.8333C18.793 26.8333 18.6263 26.75 18.4596 26.5833L14.293 22.4167C13.9596 22.0833 13.9596 21.5833 14.293 21.25C14.6263 20.9167 15.1263 20.9167 15.4596 21.25L19.043 24.8333L27.6263 16.25C27.9596 15.9167 28.4596 15.9167 28.793 16.25C29.1263 16.5833 29.1263 17.0833 28.793 17.4167Z" fill="black"/>
<mask id="mask0" mask-type="alpha" maskUnits="userSpaceOnUse" x="14" y="16" width="16" height="11">
<path d="M28.793 17.4167L19.6263 26.5833C19.4596 26.75 19.293 26.8333 19.043 26.8333C18.793 26.8333 18.6263 26.75 18.4596 26.5833L14.293 22.4167C13.9596 22.0833 13.9596 21.5833 14.293 21.25C14.6263 20.9167 15.1263 20.9167 15.4596 21.25L19.043 24.8333L27.6263 16.25C27.9596 15.9167 28.4596 15.9167 28.793 16.25C29.1263 16.5833 29.1263 17.0833 28.793 17.4167Z" fill="white"/>
</mask>
<g mask="url(#mask0)">
<rect x="11.543" y="11" width="20" height="20" fill="#28C76F"/>
</g>
</g>
<defs>
<clipPath id="clip0">
<rect width="42" height="42" fill="white" transform="translate(0.542969)"/>
</clipPath>
</defs>
</svg>
