<svg width="42" height="42" viewBox="0 0 42 42" fill="none" xmlns="http://www.w3.org/2000/svg">
<rect width="42" height="42" rx="5" fill="#EA5455" fill-opacity="0.12"/>
<path fill-rule="evenodd" clip-rule="evenodd" d="M23.0834 20.1667H21.8334V16H25.1667C25.6667 16 26.0001 15.6667 26.0001 15.1667C26.0001 14.6667 25.6667 14.3333 25.1667 14.3333H21.8334V11.8333C21.8334 11.3333 21.5001 11 21.0001 11C20.5001 11 20.1667 11.3333 20.1667 11.8333V14.3333H18.9167C16.8334 14.3333 15.1667 16 15.1667 18.0833C15.1667 20.1667 16.8334 21.8333 18.9167 21.8333H20.1667V26H16.0001C15.5001 26 15.1667 26.3333 15.1667 26.8333C15.1667 27.3333 15.5001 27.6667 16.0001 27.6667H20.1667V30.1667C20.1667 30.6667 20.5001 31 21.0001 31C21.5001 31 21.8334 30.6667 21.8334 30.1667V27.6667H23.0834C25.1667 27.6667 26.8334 26 26.8334 23.9167C26.8334 21.8333 25.1667 20.1667 23.0834 20.1667ZM18.9167 20.1667C17.7501 20.1667 16.8334 19.25 16.8334 18.0833C16.8334 16.9167 17.7501 16 18.9167 16H20.1667V20.1667H18.9167ZM21.8334 26H23.0834C24.2501 26 25.1667 25.0833 25.1667 23.9167C25.1667 22.75 24.2501 21.8333 23.0834 21.8333H21.8334V26Z" fill="black"/>
<mask id="mask0" mask-type="alpha" maskUnits="userSpaceOnUse" x="15" y="11" width="12" height="20">
<path fill-rule="evenodd" clip-rule="evenodd" d="M23.0834 20.1667H21.8334V16H25.1667C25.6667 16 26.0001 15.6667 26.0001 15.1667C26.0001 14.6667 25.6667 14.3333 25.1667 14.3333H21.8334V11.8333C21.8334 11.3333 21.5001 11 21.0001 11C20.5001 11 20.1667 11.3333 20.1667 11.8333V14.3333H18.9167C16.8334 14.3333 15.1667 16 15.1667 18.0833C15.1667 20.1667 16.8334 21.8333 18.9167 21.8333H20.1667V26H16.0001C15.5001 26 15.1667 26.3333 15.1667 26.8333C15.1667 27.3333 15.5001 27.6667 16.0001 27.6667H20.1667V30.1667C20.1667 30.6667 20.5001 31 21.0001 31C21.5001 31 21.8334 30.6667 21.8334 30.1667V27.6667H23.0834C25.1667 27.6667 26.8334 26 26.8334 23.9167C26.8334 21.8333 25.1667 20.1667 23.0834 20.1667ZM18.9167 20.1667C17.7501 20.1667 16.8334 19.25 16.8334 18.0833C16.8334 16.9167 17.7501 16 18.9167 16H20.1667V20.1667H18.9167ZM21.8334 26H23.0834C24.2501 26 25.1667 25.0833 25.1667 23.9167C25.1667 22.75 24.2501 21.8333 23.0834 21.8333H21.8334V26Z" fill="white"/>
</mask>
<g mask="url(#mask0)">
<rect x="11" y="11" width="20" height="20" fill="#EA5455"/>
</g>
</svg>
