<svg width="32" height="32" viewBox="0 0 32 32" fill="none" xmlns="http://www.w3.org/2000/svg">
<path d="M23.6451 14.88V5.92C23.6451 3.76 21.7465 2 19.4281 2H6.87707C4.55873 2 2.66008 3.76 2.66008 5.92V21.2C2.66008 21.68 2.93988 22.1 3.37957 22.3C3.53945 22.36 3.69934 22.4 3.85922 22.4C4.15901 22.4 4.43881 22.3 4.65865 22.1L8.31605 18.8H19.4281C21.7664 18.8 23.6451 17.04 23.6451 14.88ZM7.87636 16.4C7.57657 16.4 7.29677 16.52 7.07693 16.7L5.07835 18.5V5.92C5.07835 5.1 5.91775 4.4 6.89705 4.4H19.4481C20.4274 4.4 21.2668 5.1 21.2668 5.92V14.88C21.2668 15.7 20.4274 16.4 19.4481 16.4H7.87636Z" fill="#475867"/>
<path d="M17.8692 7.2001H7.87636C7.21683 7.2001 6.6772 7.7401 6.6772 8.4001C6.6772 9.0601 7.21683 9.6001 7.87636 9.6001H17.8692C18.5288 9.6001 19.0684 9.0601 19.0684 8.4001C19.0684 7.7401 18.5288 7.2001 17.8692 7.2001Z" fill="#475867"/>
<path d="M13.8721 11.3399H7.87636C7.21683 11.3399 6.6772 11.8799 6.6772 12.5399C6.6772 13.1999 7.21683 13.7399 7.87636 13.7399H13.8721C14.5316 13.7399 15.0712 13.1999 15.0712 12.5399C15.0712 11.8799 14.5316 11.3399 13.8721 11.3399Z" fill="#475867"/>
<path d="M27.1824 14.0598H26.4629C25.8034 14.0598 25.2637 14.5998 25.2637 15.2598C25.2637 15.9198 25.8034 16.4598 26.4629 16.4598H27.1824C27.762 16.4598 28.2616 16.8398 28.2616 17.2998V26.1198L27.2423 25.1998C27.0225 24.9998 26.7427 24.8998 26.4429 24.8998H17.7291C17.1495 24.8998 16.6699 24.4998 16.6699 24.0398V21.8398C16.6699 21.1798 16.1303 20.6398 15.4707 20.6398C14.8112 20.6398 14.2716 21.1798 14.2716 21.8398V24.0398C14.2716 25.8398 15.8305 27.2998 17.7291 27.2998H25.9832L28.6613 29.6998C28.8812 29.8998 29.1809 29.9998 29.4607 29.9998C29.6206 29.9998 29.8005 29.9598 29.9604 29.8998C30.4001 29.6998 30.6599 29.2798 30.6599 28.7998V17.2998C30.6599 15.5198 29.101 14.0598 27.1824 14.0598Z" fill="#475867"/>
</svg>
