<svg width="28" height="28" viewBox="0 0 28 28" fill="none" xmlns="http://www.w3.org/2000/svg">
<path opacity="0.01" d="M27.9634 0.0175476H0.0158691V27.965H27.9634V0.0175476Z" fill="white"/>
<path opacity="0.01" d="M28 0H0V28H28V0Z" fill="white"/>
<path d="M9.44995 16.8L14 12.25L18.375 16.8" stroke="#F38221" stroke-width="1.8" stroke-miterlimit="10" stroke-linecap="round" stroke-linejoin="round"/>
<path d="M9.44995 23.45L14 18.9L18.375 23.45" stroke="#F38221" stroke-width="1.8" stroke-miterlimit="10" stroke-linecap="round" stroke-linejoin="round"/>
<path d="M4.37505 19.6C3.50005 19.25 2.80005 18.375 2.80005 17.325V14.875C4.20005 14.875 5.42505 13.65 5.42505 12.25C5.42505 10.85 4.20005 9.62499 2.80005 9.62499V6.99999C2.80005 5.59999 3.85005 4.54999 5.25005 4.54999H22.575C23.975 4.54999 25.2 5.59999 25.2 6.99999V9.62499C23.8 9.62499 22.575 10.85 22.575 12.25C22.575 13.65 23.8 14.875 25.2 14.875V17.325C25.2 18.375 24.5 19.25 23.625 19.6" stroke="#475867" stroke-width="1.8" stroke-miterlimit="10" stroke-linecap="round" stroke-linejoin="round"/>
</svg>
