<svg width="24" height="24" viewBox="0 0 24 24" fill="none" xmlns="http://www.w3.org/2000/svg">
<path opacity="0.01" d="M24 0H0V24H24V0Z" fill="white"/>
<path d="M19.2002 4.64999C20.5502 4.94999 21.6002 6.14999 21.6002 7.49999V7.94999C21.6002 8.99999 20.7002 9.89999 19.6502 9.89999H17.7002C16.6502 9.89999 15.7502 8.99999 15.7502 7.94999C15.7502 7.79999 15.6002 7.64999 15.4502 7.64999C13.2002 7.49999 11.1002 7.49999 8.85019 7.64999C8.70019 7.64999 8.55019 7.79999 8.55019 7.94999C8.55019 8.99999 7.65019 9.89999 6.60019 9.89999H4.65019C3.60019 9.89999 2.7002 8.99999 2.7002 7.94999V7.49999C2.7002 6.14999 3.75019 4.94999 5.10019 4.64999C9.45019 3.74999 14.2502 3.59999 19.2002 4.64999Z" stroke="#00AEEF" stroke-width="1.8" stroke-miterlimit="10" stroke-linecap="round" stroke-linejoin="round"/>
<path d="M19.3498 20.1H4.7998C4.3498 20.1 4.0498 19.8 4.0498 19.35C4.0498 15.3 7.34981 12 11.3998 12H13.0498C17.0998 12 20.3998 15.3 20.3998 19.35C20.0998 19.8 19.6498 20.1 19.3498 20.1Z" stroke="#475867" stroke-width="1.8" stroke-miterlimit="10" stroke-linecap="round" stroke-linejoin="round"/>
</svg>
