<svg width="25" height="25" viewBox="0 0 25 25" fill="none" xmlns="http://www.w3.org/2000/svg">
<path d="M22.5359 6.00006C22.287 5.99768 22.0352 6.06012 21.8054 6.20013L17.2157 8.99492C16.6625 7.4379 15.1821 5.29474 13.4026 5.29474H2.81481C2.59872 5.29476 2.39148 5.37843 2.23868 5.52734C2.08588 5.67626 2.00002 5.87822 2 6.08882V16.025C2 18.2106 3.83616 20 6.07885 20H16.6667C16.8828 20 17.09 19.9163 17.2428 19.7674C17.3956 19.6185 17.4815 19.4165 17.4815 19.2059V15.667L21.8054 18.3005C22.7246 18.8606 24 18.1721 24 17.1156V7.38505C24 6.59269 23.2825 6.00711 22.5359 6.00006ZM22.3704 7.7278V16.7729L17.4815 13.7951V10.7056L22.3704 7.7278ZM3.62963 6.8829H13.4026C14.7647 6.8829 15.8519 8.94239 15.8519 10.2698V14.2355V18.4118H6.07885C4.71679 18.4118 3.62963 17.3523 3.62963 16.025V6.8829Z" fill="#475867"/>
</svg>
