<svg xmlns="http://www.w3.org/2000/svg" viewBox="0 0 24 24"><defs><style>.cls-1{fill:none;stroke:#fff;stroke-linecap:round;stroke-linejoin:round;stroke-width:1.5px;}</style></defs><g id="Layer_2" data-name="Layer 2"><g id="Layer_1-2" data-name="Layer 1"><g id="Interface-Essential_Dashboard_gauge-dashboard-1" data-name="Interface-Essential / Dashboard / gauge-dashboard-1"><g id="Group_13" data-name="Group 13"><g id="gauge-dashboard-1"><path id="Shape_34" data-name="Shape 34" class="cls-1" d="M9,15.28V15a3,3,0,0,1,6,0v.28"/><path id="Shape_35" data-name="Shape 35" class="cls-1" d="M14.25,5.25,12,12"/><path id="Shape_36" data-name="Shape 36" class="cls-1" d="M6.38,7.5a.38.38,0,1,0,0,.75.38.38,0,0,0,0-.75h0"/><path id="Shape_37" data-name="Shape 37" class="cls-1" d="M19.13,11.25a.38.38,0,1,0,.37.37.38.38,0,0,0-.37-.37h0"/><path id="Shape_38" data-name="Shape 38" class="cls-1" d="M17.63,7.5a.38.38,0,0,0-.35.23.37.37,0,1,0,.72.15.38.38,0,0,0-.38-.38h0"/><path id="Shape_39" data-name="Shape 39" class="cls-1" d="M9.38,4.5a.38.38,0,1,0,0,.75.38.38,0,0,0,0-.75h0"/><path id="Shape_40" data-name="Shape 40" class="cls-1" d="M21.43,18.14a15.72,15.72,0,0,0-18.86,0"/><path id="Oval_4" data-name="Oval 4" class="cls-1" d="M12,23.25A11.25,11.25,0,1,0,.75,12,11.25,11.25,0,0,0,12,23.25Z"/><path id="Shape_41" data-name="Shape 41" class="cls-1" d="M4.88,11.25a.38.38,0,1,0,.37.37.38.38,0,0,0-.37-.37"/></g></g></g></g></g></svg>