<svg width="18" height="18" viewBox="0 0 18 18" fill="none" xmlns="http://www.w3.org/2000/svg">
<path fill-rule="evenodd" clip-rule="evenodd" d="M11.989 17.038C11.824 17.104 11.626 17.005 11.56 16.84C11.494 16.675 11.593 16.477 11.758 16.411C14.794 15.355 16.84 12.484 16.84 9.25C16.84 5.059 13.441 1.66 9.25 1.66C5.059 1.66 1.66 5.059 1.66 9.25C1.66 12.484 3.706 15.355 6.709 16.411C6.874 16.477 6.973 16.675 6.907 16.84C6.841 17.005 6.643 17.104 6.478 17.038C3.244 15.883 1 12.781 1 9.25C1 4.696 4.696 1 9.25 1C13.804 1 17.5 4.696 17.5 9.25C17.5 12.781 15.256 15.883 11.989 17.038ZM9.481 5.191L13.441 9.184C13.738 9.481 13.276 9.976 12.979 9.646L9.811 6.478C9.679 6.346 9.58 6.379 9.58 6.577V14.53C9.58 14.695 9.448 14.86 9.25 14.86C9.052 14.86 8.92 14.728 8.92 14.53V6.577C8.92 6.412 8.821 6.346 8.689 6.478L5.521 9.646C5.224 9.943 4.729 9.481 5.059 9.184L9.019 5.191C9.151 5.059 9.349 5.059 9.481 5.191Z" fill="#475867" stroke="#475867" stroke-width="0.7"/>
</svg>
