<svg width="17" height="16" viewBox="0 0 17 16" fill="none" xmlns="http://www.w3.org/2000/svg">
<path fill-rule="evenodd" clip-rule="evenodd" d="M6.6115 15.9886C6.44893 15.9891 6.28986 15.9414 6.15438 15.8516C5.93492 15.7021 5.80259 15.4546 5.80011 15.1892V10.4726L0.748907 5.41329C0.444957 5.11136 0.275984 4.69951 0.280356 4.27125V1.59886C0.280356 0.715836 0.996669 0 1.88029 0H14.6797C15.104 0 15.511 0.168451 15.811 0.468296C16.1111 0.768141 16.2796 1.17482 16.2796 1.59886V4.28267C16.284 4.71093 16.115 5.12278 15.8111 5.42472L10.7485 10.484V13.9101C10.7482 14.2438 10.5376 14.5412 10.2228 14.6524L6.8972 15.9886C6.80257 16.0038 6.70613 16.0038 6.6115 15.9886ZM1.88037 1.59991V4.28551L6.943 9.34814C7.24478 9.65172 7.41336 10.0629 7.41155 10.4909V14.0451L9.14862 13.3822V10.4795C9.14593 10.049 9.31933 9.63618 9.62859 9.33671L14.6798 4.28551V1.59991H1.88037Z" fill="#475867"/>
</svg>
