<svg xmlns="http://www.w3.org/2000/svg" viewBox="0 0 23.28 20.66"><defs><style>.cls-1{fill:none;stroke:#fff;stroke-linecap:round;stroke-linejoin:round;stroke-width:1.5px;}</style></defs><g id="Layer_2" data-name="Layer 2"><g id="Layer_1-2" data-name="Layer 1"><path class="cls-1" d="M16.32,9.73a.95.95,0,0,0,1.42,0l.46-.5A1,1,0,0,1,19.28,9a1,1,0,0,1,.59.94l0,.68a1,1,0,0,0,1,1l.68,0a1,1,0,0,1,.69,1.67l-.51.46a1,1,0,0,0,0,1.42l.51.46a1,1,0,0,1-.69,1.67l-.68,0a1,1,0,0,0-1,1l0,.68a1,1,0,0,1-1.67.69l-.46-.51a1,1,0,0,0-1.42,0l-.46.51a1,1,0,0,1-1.67-.69l0-.68a1,1,0,0,0-.28-.73,1,1,0,0,0-.73-.28l-.69,0a1,1,0,0,1-.69-1.67l.51-.46a.95.95,0,0,0,0-1.42l-.51-.46a1,1,0,0,1,.69-1.67l.69,0a1,1,0,0,0,.73-.28,1,1,0,0,0,.28-.73l0-.68A1,1,0,0,1,14.78,9a1,1,0,0,1,1.08.25Z"/><circle class="cls-1" cx="17.03" cy="14.41" r="2.2"/><path class="cls-1" d="M.75,17.25A6.75,6.75,0,0,1,7.5,10.5a6.68,6.68,0,0,1,2.65.54"/><path class="cls-1" d="M4,2.78a6.82,6.82,0,0,0,4.93,2.1,7,7,0,0,0,2.71-.56"/><circle class="cls-1" cx="7.5" cy="4.88" r="4.13"/><line class="cls-1" x1="7.5" y1="10.5" x2="7.5" y2="17.25"/></g></g></svg>