<svg xmlns="http://www.w3.org/2000/svg" viewBox="0 0 24 23.99"><defs><style>.cls-1{fill:none;stroke:#fff;stroke-linecap:round;stroke-linejoin:round;stroke-width:1.5px;}</style></defs><g id="Layer_2" data-name="Layer 2"><g id="Layer_1-2" data-name="Layer 1"><path class="cls-1" d="M.75,23.24a8,8,0,0,1,.65-3.12c.47-.92,2.43-1.56,4.9-2.45.66-.24.55-1.94.26-2.26a4.77,4.77,0,0,1-1.28-3.73A3.19,3.19,0,0,1,8,8.26"/><path class="cls-1" d="M11.4,13.09a4.14,4.14,0,0,1-1.17,2.32c-.29.32-.4,2,.27,2.26,2.46.89,4.42,1.53,4.89,2.45a8,8,0,0,1,.67,3.12"/><path class="cls-1" d="M19.37,23.24h2.37v-.82c0-2.9-2-3.36-4-4.1-.67-.25-.56-2-.26-2.31a4.32,4.32,0,0,0,1.19-2.55"/><circle class="cls-1" cx="15.75" cy="6" r="5.25"/><line class="cls-1" x1="23.25" y1="13.5" x2="19.46" y2="9.71"/></g></g></svg>