<svg xmlns="http://www.w3.org/2000/svg" viewBox="0 0 24 24"><defs><style>.cls-1{fill:none;stroke:#fff;stroke-linecap:round;stroke-linejoin:round;stroke-width:1.5px;}</style></defs><g id="Layer_2" data-name="Layer 2"><g id="Layer_1-2" data-name="Layer 1"><line class="cls-1" x1="8.25" y1="23.25" x2="15.75" y2="23.25"/><path class="cls-1" d="M18,.75h2.25a3,3,0,0,1,3,3v12a3,3,0,0,1-3,3H3.75a3,3,0,0,1-3-3v-12a3,3,0,0,1,3-3H6"/><line class="cls-1" x1="9" y1="8.25" x2="13.5" y2="8.25"/><line class="cls-1" x1="13.5" y1="3.75" x2="13.5" y2="1.5"/><line class="cls-1" x1="13.5" y1="12.75" x2="13.5" y2="15"/><line class="cls-1" x1="10.5" y1="3.75" x2="10.5" y2="1.5"/><line class="cls-1" x1="10.5" y1="12.75" x2="10.5" y2="15"/><path class="cls-1" d="M13.5,3.75a2.25,2.25,0,0,1,0,4.5,2.25,2.25,0,0,1,0,4.5H9v-9Z"/><line class="cls-1" x1="12" y1="18.75" x2="12" y2="23.25"/></g></g></svg>