<svg xmlns="http://www.w3.org/2000/svg" viewBox="0 0 24 24"><defs><style>.cls-1{fill:none;stroke:#fff;stroke-linecap:round;stroke-linejoin:round;stroke-width:1.5px;}</style></defs><g id="Layer_2" data-name="Layer 2"><g id="Layer_1-2" data-name="Layer 1"><path class="cls-1" d="M12.37,22.54h0a4.51,4.51,0,0,0,5.6-.62l.63-.63a1.51,1.51,0,0,0,0-2.12L16,16.53a1.5,1.5,0,0,0-2.13,0h0a1.49,1.49,0,0,1-2.12,0L7.47,12.29a1.49,1.49,0,0,1,0-2.12h0A1.5,1.5,0,0,0,7.47,8L4.82,5.39a1.51,1.51,0,0,0-2.12,0L2.07,6a4.51,4.51,0,0,0-.62,5.6h0A40.59,40.59,0,0,0,12.37,22.54Z"/><path class="cls-1" d="M11.25,8.25a4.49,4.49,0,0,1,4.5,4.5"/><path class="cls-1" d="M11.25,4.5a8.25,8.25,0,0,1,8.25,8.25"/><path class="cls-1" d="M11.25.75a12,12,0,0,1,12,12"/></g></g></svg>