<svg xmlns="http://www.w3.org/2000/svg" viewBox="0 0 23.67 23.67"><defs><style>.cls-1{fill:none;stroke:#fff;stroke-linecap:round;stroke-linejoin:round;stroke-width:1.48px;}</style></defs><g id="Layer_2" data-name="Layer 2"><g id="Layer_1-2" data-name="Layer 1"><path class="cls-1" d="M20.71,20h.74a1.48,1.48,0,0,0,1.48-1.48V2.33A1.6,1.6,0,0,0,21.34.74h-19A1.58,1.58,0,0,0,.74,2.32V18.38A1.59,1.59,0,0,0,2.33,20H3"/><line class="cls-1" x1="0.74" y1="5.18" x2="22.93" y2="5.18"/><circle class="cls-1" cx="11.84" cy="17.01" r="5.92"/><line class="cls-1" x1="11.84" y1="17.01" x2="13.89" y2="14.79"/><line class="cls-1" x1="11.84" y1="11.1" x2="11.84" y2="8.14"/><line class="cls-1" x1="10.36" y1="8.14" x2="13.31" y2="8.14"/><line class="cls-1" x1="15.63" y1="12.41" x2="16.95" y2="11.1"/><line class="cls-1" x1="7.74" y1="12.41" x2="6.43" y2="11.1"/></g></g></svg>